<?xml version="1.0" encoding="utf-8"?>
<!-- Generator: Adobe Illustrator 22.1.0, SVG Export Plug-In . SVG Version: 6.00 Build 0)  -->
<svg version="1.1" xmlns="http://www.w3.org/2000/svg" xmlns:xlink="http://www.w3.org/1999/xlink" x="0px" y="0px"
	 viewBox="0 0 68 51.7" style="enable-background:new 0 0 68 51.7;" xml:space="preserve">
<style type="text/css">
	.st0{stroke:#FFFFFF;stroke-width:0.75;stroke-miterlimit:10;}
	.st1{stroke:#FFFFFF;stroke-width:1.25;stroke-miterlimit:10;}
	.st2{fill:#FFFFFF;}
	.st3{stroke:#FFFFFF;stroke-miterlimit:10;}
</style>
<g id="Layer_2">
	<path class="st0" d="M13.5,14.1c0,0,2.8,0.1,4.5,0.5c1.2,0.3,2.4,0.4,3.6,0.2c4.1-0.5,12.3-1.1,15.3,0.4c0,0,8.9-3.9,10-4.8
		c1.6-1.3,2.4,2.7,0.3,6.4s4.6,14,4.6,14s2.7,6.8-4.8,4.3c0,0,3.1,6.8-3.7,4.1c0,0,0.6,5.3-5.6,2.9c0,0-0.9,3.4-6,0.9
		C26.5,40.3,8.8,28.7,8.8,28.7L13.5,14.1z"/>
	<path class="st1" d="M13.4,11.2L8.6,9.4L1.5,29.9l5.4,2.9C6.9,32.7,13.9,21.5,13.4,11.2z"/>
	<g>
		<path class="st2" d="M46.7,35.2c-1.1-1-2.1-2-3-3.1c-0.5-0.5-0.9-1.1-1.3-1.7c-0.4-0.6-0.8-1.2-1-1.9c0.3,0.7,0.7,1.2,1.1,1.8
			c0.4,0.6,0.9,1.1,1.4,1.6c1,1,2.1,2,3.2,2.9L46.7,35.2z"/>
	</g>
	<g>
		<path class="st2" d="M43,39.4c-1.3-0.8-2.4-1.7-3.5-2.7c-1-1-1.9-2.2-2.6-3.5c0.7,1.3,1.7,2.4,2.7,3.3c1.1,0.9,2.3,1.8,3.5,2.4
			L43,39.4z"/>
	</g>
	<g>
		<path class="st2" d="M37.7,42.4c-1.1-0.7-2.1-1.5-2.9-2.5c-0.9-0.9-1.6-2-1.9-3.3c0.4,1.2,1.2,2.2,2.1,3.1c0.9,0.9,1.9,1.6,3,2.2
			L37.7,42.4z"/>
	</g>
	<polygon class="st3" points="58.5,33.3 59.2,32.7 59.1,29.6 58.1,26.8 54.9,28.1 	"/>
	<path class="st1" d="M51.4,13.4l5.2-2.6l8.8,18.1l-6.2,3.7C59.2,32.7,59.8,25.5,51.4,13.4z"/>
	<path class="st0" d="M28.8,15.7c0,0-4,3.7-2.5,5.3s4,0.6,4,0.6s4.1-2.4,3.7-4c0,0,3.7,1,4.7-1c0,0-1,3.3,4.1,5.6l9.1,9.6l2.5-1.1
		l4.4-2.1c0,0-2.8-10.2-6.9-14.4l-4.2,1.8l-7.6-4.6c-0.7-0.4-1.4-0.6-2.2-0.6l-6.6,0.2C31.3,11.1,28.3,11,28.8,15.7z"/>
	<path class="st0" d="M14.2,32.3c0,0-5.7,5.2,4.3,2.7L14.2,32.3z"/>
	<path class="st0" d="M23.3,35.3c0.2,0.7-0.2,1.7-0.5,2.4c-0.2,0.6-0.7,1-1.2,1.2c-3.4,1.1-3.2-2.8-3.1-4.3c0,0,0.6-4.2,2.9-3.4
		C23.6,32,23.3,35.3,23.3,35.3"/>
	<path class="st0" d="M30.6,42.6c0,0,0.9-7.3-3.1-4c0,0-3,5.7,1.3,5.4C28.7,44,29.7,44,30.6,42.6z"/>
	<path class="st0" d="M23.3,35.3c0,0-0.4,2.4-0.5,2.4"/>
	<path class="st0" d="M27.5,38.6c0,0,0.8-6-3.5-3.7c-0.4,0.2-0.7,0.6-0.9,1.1c-0.5,1.6-1.5,5.1,1.7,5.6
		C24.8,41.6,26.6,42.4,27.5,38.6z"/>
</g>
<g id="Layer_3">
</g>
<g id="Layer_4">
</g>
<g id="Layer_5">
</g>
</svg>
