<?xml version="1.0" encoding="utf-8"?>
<!-- Generator: Adobe Illustrator 25.2.1, SVG Export Plug-In . SVG Version: 6.00 Build 0)  -->
<svg version="1.1" id="Layer_1" xmlns="http://www.w3.org/2000/svg" xmlns:xlink="http://www.w3.org/1999/xlink" x="0px" y="0px"
	 viewBox="0 0 243 281.7" style="enable-background:new 0 0 243 281.7;" xml:space="preserve">
<style type="text/css">
	.st0{fill:#FFFFFF;}
	.st1{fill:none;}
</style>
<path class="st0" d="M97.2,115L97.2,115c9.7,0,17.5-7.8,17.5-17.5V38.8c0-12.7-10.3-23-23-23H19.8v123.8l31.5,39.9v-60.7L83,143
	v55.5l31.6,39.8V137.1c0-5.4-2.5-10.5-6.8-13.8L97.2,115z M83,83.4H51.4V47.5h21c5.9,0,10.6,4.8,10.6,10.6V83.4z"/>
<path class="st0" d="M128.1,38.8v229.6l31.6-39.8l0-88.9l31.6-31.1v70.9l31.7-39.8l0-123.9h-71.8C138.4,15.8,128.1,26.1,128.1,38.8z
	 M191.4,65.3l-31.6,29.9V58.5c0-6.1,5-11.1,11.1-11.1h20.5V65.3z"/>
<line class="st1" x1="114.7" y1="238.4" x2="83" y2="198.6"/>
</svg>
